<mxfile host="app.diagrams.net" agent="Mozilla/5.0 (Windows NT 10.0; Win64; x64) AppleWebKit/537.36 (KHTML, like Gecko) Chrome/138.0.0.0 Safari/537.36" version="28.0.9">
  <diagram name="Page-1" id="74b105a0-9070-1c63-61bc-23e55f88626e">
    <mxGraphModel grid="1" page="1" gridSize="10" guides="1" tooltips="1" connect="1" arrows="1" fold="1" pageScale="1.5" pageWidth="1169" pageHeight="826" background="none" math="0" shadow="0">
      <root>
        <mxCell id="0" style=";html=1;" />
        <mxCell id="1" style=";html=1;" parent="0" />
        <mxCell id="arbRKBGG3sd4Ng7vMnnE-11" style="edgeStyle=orthogonalEdgeStyle;rounded=0;orthogonalLoop=1;jettySize=auto;html=1;entryX=0.5;entryY=0;entryDx=0;entryDy=0;" edge="1" parent="1" source="arbRKBGG3sd4Ng7vMnnE-5" target="arbRKBGG3sd4Ng7vMnnE-9">
          <mxGeometry relative="1" as="geometry" />
        </mxCell>
        <mxCell id="arbRKBGG3sd4Ng7vMnnE-5" value="&lt;font&gt;&lt;b&gt;FRONTEND&lt;/b&gt;&lt;/font&gt;" style="swimlane;fontStyle=0;childLayout=stackLayout;horizontal=1;startSize=30;horizontalStack=0;resizeParent=1;resizeParentMax=0;resizeLast=0;collapsible=1;marginBottom=0;whiteSpace=wrap;html=1;fillColor=#1ba1e2;strokeColor=#006EAF;fontColor=#ffffff;" vertex="1" parent="1">
          <mxGeometry x="650" y="210" width="140" height="70" as="geometry">
            <mxRectangle x="650" y="210" width="110" height="30" as="alternateBounds" />
          </mxGeometry>
        </mxCell>
        <mxCell id="arbRKBGG3sd4Ng7vMnnE-6" value="&lt;div style=&quot;text-align: justify;&quot;&gt;&lt;span style=&quot;background-color: transparent; color: light-dark(rgb(0, 0, 0), rgb(255, 255, 255));&quot;&gt;React + TS&lt;/span&gt;&lt;/div&gt;&lt;font&gt;&lt;div style=&quot;text-align: justify;&quot;&gt;&lt;span style=&quot;background-color: transparent; color: light-dark(rgb(0, 0, 0), rgb(255, 255, 255));&quot;&gt;Tailwind CSS&lt;/span&gt;&lt;/div&gt;&lt;/font&gt;" style="text;strokeColor=#6c8ebf;fillColor=#dae8fc;align=center;verticalAlign=middle;spacingLeft=4;spacingRight=4;overflow=hidden;points=[[0,0.5],[1,0.5]];portConstraint=eastwest;rotatable=0;whiteSpace=wrap;html=1;" vertex="1" parent="arbRKBGG3sd4Ng7vMnnE-5">
          <mxGeometry y="30" width="140" height="40" as="geometry" />
        </mxCell>
        <mxCell id="arbRKBGG3sd4Ng7vMnnE-12" style="edgeStyle=orthogonalEdgeStyle;rounded=0;orthogonalLoop=1;jettySize=auto;html=1;exitX=0.5;exitY=0;exitDx=0;exitDy=0;entryX=0.5;entryY=1;entryDx=0;entryDy=0;" edge="1" parent="1" source="arbRKBGG3sd4Ng7vMnnE-9" target="arbRKBGG3sd4Ng7vMnnE-5">
          <mxGeometry relative="1" as="geometry" />
        </mxCell>
        <mxCell id="arbRKBGG3sd4Ng7vMnnE-13" value="HTTPS (REST / WebSocket)" style="edgeLabel;align=center;verticalAlign=middle;resizable=0;points=[];html=1;textShadow=0;labelBorderColor=none;labelBackgroundColor=none;fontColor=default;" connectable="0" vertex="1" parent="arbRKBGG3sd4Ng7vMnnE-12">
          <mxGeometry x="-0.0048" y="1" relative="1" as="geometry">
            <mxPoint x="81" as="offset" />
          </mxGeometry>
        </mxCell>
        <mxCell id="arbRKBGG3sd4Ng7vMnnE-24" style="edgeStyle=orthogonalEdgeStyle;rounded=0;orthogonalLoop=1;jettySize=auto;html=1;exitX=0.25;exitY=1;exitDx=0;exitDy=0;entryX=0.5;entryY=0;entryDx=0;entryDy=0;" edge="1" parent="1" source="arbRKBGG3sd4Ng7vMnnE-9" target="arbRKBGG3sd4Ng7vMnnE-20">
          <mxGeometry relative="1" as="geometry" />
        </mxCell>
        <mxCell id="arbRKBGG3sd4Ng7vMnnE-26" style="edgeStyle=orthogonalEdgeStyle;rounded=0;orthogonalLoop=1;jettySize=auto;html=1;exitX=0.75;exitY=1;exitDx=0;exitDy=0;entryX=0.5;entryY=0;entryDx=0;entryDy=0;" edge="1" parent="1" source="arbRKBGG3sd4Ng7vMnnE-9" target="arbRKBGG3sd4Ng7vMnnE-22">
          <mxGeometry relative="1" as="geometry" />
        </mxCell>
        <mxCell id="arbRKBGG3sd4Ng7vMnnE-9" value="&lt;b&gt;Backend API (.NET 8)&amp;nbsp;&amp;nbsp;&lt;/b&gt;" style="swimlane;fontStyle=0;childLayout=stackLayout;horizontal=1;startSize=30;horizontalStack=0;resizeParent=1;resizeParentMax=0;resizeLast=0;collapsible=1;marginBottom=0;whiteSpace=wrap;html=1;fillColor=#1ba1e2;strokeColor=#006EAF;fontColor=#ffffff;" vertex="1" parent="1">
          <mxGeometry x="570" y="350" width="300" height="160" as="geometry" />
        </mxCell>
        <mxCell id="arbRKBGG3sd4Ng7vMnnE-10" value="&lt;div style=&quot;text-align: justify;&quot;&gt;Auth Service (JWT, Refresh)&lt;/div&gt;&lt;div style=&quot;text-align: justify;&quot;&gt;Project &amp;amp; Task Service (CRUD, lÃ³gica Kanban)&lt;/div&gt;&lt;div style=&quot;text-align: justify;&quot;&gt;Chat Service (SignalR)&lt;/div&gt;&lt;div style=&quot;text-align: justify;&quot;&gt;File Upload Service (Azure Blob Storage)&lt;/div&gt;&lt;div style=&quot;text-align: justify;&quot;&gt;&lt;span style=&quot;background-color: transparent; color: light-dark(rgb(0, 0, 0), rgb(255, 255, 255));&quot;&gt;Integration Service (Google Calendar, GitHub)&lt;/span&gt;&lt;/div&gt;&lt;div style=&quot;text-align: justify;&quot;&gt;&lt;span style=&quot;background-color: transparent; color: light-dark(rgb(0, 0, 0), rgb(255, 255, 255));&quot;&gt;Notification Service (WebSockets/SignalR)&lt;/span&gt;&lt;/div&gt;&lt;div style=&quot;text-align: justify;&quot;&gt;&lt;span style=&quot;background-color: transparent; color: light-dark(rgb(0, 0, 0), rgb(255, 255, 255));&quot;&gt;API Gateway (Swagger/OpenAPI)&lt;/span&gt;&lt;/div&gt;" style="text;strokeColor=#6c8ebf;fillColor=#dae8fc;align=center;verticalAlign=middle;spacingLeft=4;spacingRight=4;overflow=hidden;points=[[0,0.5],[1,0.5]];portConstraint=eastwest;rotatable=0;whiteSpace=wrap;html=1;" vertex="1" parent="arbRKBGG3sd4Ng7vMnnE-9">
          <mxGeometry y="30" width="300" height="130" as="geometry" />
        </mxCell>
        <mxCell id="arbRKBGG3sd4Ng7vMnnE-25" style="edgeStyle=orthogonalEdgeStyle;rounded=0;orthogonalLoop=1;jettySize=auto;html=1;exitX=0.5;exitY=0;exitDx=0;exitDy=0;entryX=0.25;entryY=1;entryDx=0;entryDy=0;" edge="1" parent="1" source="arbRKBGG3sd4Ng7vMnnE-20" target="arbRKBGG3sd4Ng7vMnnE-9">
          <mxGeometry relative="1" as="geometry" />
        </mxCell>
        <mxCell id="arbRKBGG3sd4Ng7vMnnE-28" value="HTTPS" style="edgeLabel;html=1;align=center;verticalAlign=middle;resizable=0;points=[];" connectable="0" vertex="1" parent="arbRKBGG3sd4Ng7vMnnE-25">
          <mxGeometry x="0.1167" y="1" relative="1" as="geometry">
            <mxPoint x="-42" as="offset" />
          </mxGeometry>
        </mxCell>
        <mxCell id="arbRKBGG3sd4Ng7vMnnE-20" value="&lt;font&gt;&lt;b&gt;BANCO DE DADOS&lt;/b&gt;&lt;/font&gt;" style="swimlane;fontStyle=0;childLayout=stackLayout;horizontal=1;startSize=30;horizontalStack=0;resizeParent=1;resizeParentMax=0;resizeLast=0;collapsible=1;marginBottom=0;whiteSpace=wrap;html=1;fillColor=#1ba1e2;strokeColor=#006EAF;fontColor=#ffffff;" vertex="1" parent="1">
          <mxGeometry x="540" y="610" width="170" height="70" as="geometry">
            <mxRectangle x="650" y="210" width="110" height="30" as="alternateBounds" />
          </mxGeometry>
        </mxCell>
        <mxCell id="arbRKBGG3sd4Ng7vMnnE-21" value="&lt;div style=&quot;text-align: justify;&quot;&gt;PostgreSQL DB (EF Core)&lt;/div&gt;" style="text;strokeColor=#6c8ebf;fillColor=#dae8fc;align=left;verticalAlign=middle;spacingLeft=4;spacingRight=4;overflow=hidden;points=[[0,0.5],[1,0.5]];portConstraint=eastwest;rotatable=0;whiteSpace=wrap;html=1;" vertex="1" parent="arbRKBGG3sd4Ng7vMnnE-20">
          <mxGeometry y="30" width="170" height="40" as="geometry" />
        </mxCell>
        <mxCell id="arbRKBGG3sd4Ng7vMnnE-27" style="edgeStyle=orthogonalEdgeStyle;rounded=0;orthogonalLoop=1;jettySize=auto;html=1;exitX=0.5;exitY=0;exitDx=0;exitDy=0;entryX=0.75;entryY=1;entryDx=0;entryDy=0;" edge="1" parent="1" source="arbRKBGG3sd4Ng7vMnnE-22" target="arbRKBGG3sd4Ng7vMnnE-9">
          <mxGeometry relative="1" as="geometry" />
        </mxCell>
        <mxCell id="arbRKBGG3sd4Ng7vMnnE-29" value="Redis Pub/Sub" style="edgeLabel;html=1;align=center;verticalAlign=middle;resizable=0;points=[];" connectable="0" vertex="1" parent="arbRKBGG3sd4Ng7vMnnE-27">
          <mxGeometry x="0.0361" y="-1" relative="1" as="geometry">
            <mxPoint x="58" as="offset" />
          </mxGeometry>
        </mxCell>
        <mxCell id="arbRKBGG3sd4Ng7vMnnE-22" value="&lt;font&gt;&lt;b&gt;CACHE&lt;/b&gt;&lt;/font&gt;" style="swimlane;fontStyle=0;childLayout=stackLayout;horizontal=1;startSize=30;horizontalStack=0;resizeParent=1;resizeParentMax=0;resizeLast=0;collapsible=1;marginBottom=0;whiteSpace=wrap;html=1;fillColor=#1ba1e2;strokeColor=#006EAF;fontColor=#ffffff;" vertex="1" parent="1">
          <mxGeometry x="730" y="610" width="170" height="70" as="geometry">
            <mxRectangle x="650" y="210" width="110" height="30" as="alternateBounds" />
          </mxGeometry>
        </mxCell>
        <mxCell id="arbRKBGG3sd4Ng7vMnnE-23" value="&lt;div style=&quot;&quot;&gt;Redis Cache +&amp;nbsp;&lt;/div&gt;&lt;div style=&quot;&quot;&gt;&lt;span style=&quot;background-color: transparent; color: light-dark(rgb(0, 0, 0), rgb(255, 255, 255));&quot;&gt;Message BUS&lt;/span&gt;&lt;/div&gt;" style="text;strokeColor=#6c8ebf;fillColor=#dae8fc;align=center;verticalAlign=middle;spacingLeft=4;spacingRight=4;overflow=hidden;points=[[0,0.5],[1,0.5]];portConstraint=eastwest;rotatable=0;whiteSpace=wrap;html=1;" vertex="1" parent="arbRKBGG3sd4Ng7vMnnE-22">
          <mxGeometry y="30" width="170" height="40" as="geometry" />
        </mxCell>
        <mxCell id="arbRKBGG3sd4Ng7vMnnE-30" value="&lt;font style=&quot;font-size: 30px;&quot;&gt;Macro Arquitetura&lt;/font&gt;" style="text;html=1;align=center;verticalAlign=middle;whiteSpace=wrap;rounded=0;" vertex="1" parent="1">
          <mxGeometry x="590" y="140" width="260" height="30" as="geometry" />
        </mxCell>
        <mxCell id="arbRKBGG3sd4Ng7vMnnE-31" value="&lt;font style=&quot;font-size: 30px;&quot;&gt;Infraestrutura no Azure/Kubernetes&lt;/font&gt;" style="text;html=1;align=center;verticalAlign=middle;whiteSpace=wrap;rounded=0;" vertex="1" parent="1">
          <mxGeometry x="930" y="140" width="540" height="30" as="geometry" />
        </mxCell>
        <mxCell id="arbRKBGG3sd4Ng7vMnnE-34" value="Azure Kubernetes Service" style="swimlane;whiteSpace=wrap;html=1;fillColor=#1ba1e2;fontColor=#ffffff;strokeColor=#006EAF;" vertex="1" parent="1">
          <mxGeometry x="1110" y="220" width="180" height="300" as="geometry" />
        </mxCell>
        <mxCell id="arbRKBGG3sd4Ng7vMnnE-36" value="&lt;b&gt;Namespace: taskflow-prod&lt;/b&gt;" style="text;html=1;align=center;verticalAlign=middle;resizable=0;points=[];autosize=1;strokeColor=none;fillColor=none;" vertex="1" parent="arbRKBGG3sd4Ng7vMnnE-34">
          <mxGeometry y="25" width="180" height="30" as="geometry" />
        </mxCell>
        <mxCell id="arbRKBGG3sd4Ng7vMnnE-37" value="Deployment: frontend&lt;div&gt;Image: ghcr.io/taskflow/front&lt;/div&gt;" style="whiteSpace=wrap;html=1;fillColor=#dae8fc;strokeColor=#6c8ebf;" vertex="1" parent="arbRKBGG3sd4Ng7vMnnE-34">
          <mxGeometry x="10" y="60" width="160" height="50" as="geometry" />
        </mxCell>
        <mxCell id="arbRKBGG3sd4Ng7vMnnE-38" value="Deployment: backend-api&lt;div&gt;Image: ghcr.io/taskflow/api&lt;/div&gt;" style="whiteSpace=wrap;html=1;fillColor=#dae8fc;strokeColor=#6c8ebf;" vertex="1" parent="arbRKBGG3sd4Ng7vMnnE-34">
          <mxGeometry x="10" y="120" width="160" height="50" as="geometry" />
        </mxCell>
        <mxCell id="arbRKBGG3sd4Ng7vMnnE-39" value="Deployment: redis" style="whiteSpace=wrap;html=1;fillColor=#dae8fc;strokeColor=#6c8ebf;" vertex="1" parent="arbRKBGG3sd4Ng7vMnnE-34">
          <mxGeometry x="10" y="180" width="160" height="30" as="geometry" />
        </mxCell>
        <mxCell id="arbRKBGG3sd4Ng7vMnnE-40" value="Deployment: postgresql" style="whiteSpace=wrap;html=1;fillColor=#dae8fc;strokeColor=#6c8ebf;" vertex="1" parent="arbRKBGG3sd4Ng7vMnnE-34">
          <mxGeometry x="10" y="220" width="160" height="30" as="geometry" />
        </mxCell>
        <mxCell id="arbRKBGG3sd4Ng7vMnnE-41" value="Service: Azure Blob Storage" style="whiteSpace=wrap;html=1;fillColor=#dae8fc;strokeColor=#6c8ebf;" vertex="1" parent="arbRKBGG3sd4Ng7vMnnE-34">
          <mxGeometry x="10" y="260" width="160" height="30" as="geometry" />
        </mxCell>
      </root>
    </mxGraphModel>
  </diagram>
</mxfile>
